# xmcd
#
# Track frame offsets:
#	150
#	28665
#	55172
#	73472
#	88460
#	112775
#	134420
#	168755
#	180855
#	200247
#	207275
#	227502
#	248870
#	277795
#
# Disc length: 4122 seconds
#
# Revision: 2
# Processed by: cddbd v1.5PL3 Copyright (c) Steve Scherf et al.
# Submitted via: audiograbber 1.82.02
#
DISCID=c410180e
DTITLE=Carlos Maxwell and Chihuahua - No Man's Land
DYEAR=1900
DGENRE=
TTITLE0=No Man's Land
TTITLE1=Father Tell Me
TTITLE2=White Horse
TTITLE3=Take Me As I Am
TTITLE4=Angelline
TTITLE5=Angel On My Shoulder
TTITLE6=Down The River
TTITLE7=Thank You Girl
TTITLE8=Ride The Wind
TTITLE9=Ride The Wind Reprise
TTITLE10=Annabell
TTITLE11=Love Crossed The Line
TTITLE12=O Dios
TTITLE13=No Man's Land Reprise - Desert Road
EXTD=
EXTT0=
EXTT1=
EXTT2=
EXTT3=
EXTT4=
EXTT5=
EXTT6=
EXTT7=
EXTT8=
EXTT9=
EXTT10=
EXTT11=
EXTT12=
EXTT13=
PLAYORDER=
